<?xml version="1.0" standalone="no"?>
<!DOCTYPE svg PUBLIC "-//W3C//DTD SVG 20010904//EN"
 "http://www.w3.org/TR/2001/REC-SVG-20010904/DTD/svg10.dtd">
<svg version="1.0" xmlns="http://www.w3.org/2000/svg"
 width="512.000000pt" height="512.000000pt" viewBox="0 0 512.000000 512.000000"
 preserveAspectRatio="xMidYMid meet">
<metadata>
Created by potrace 1.14, written by Peter Selinger 2001-2017
</metadata>
<g transform="translate(0.000000,512.000000) scale(0.100000,-0.100000)"
fill="#000000" stroke="none">
<path d="M0 2560 l0 -2560 2560 0 2560 0 0 2560 0 2560 -2560 0 -2560 0 0
-2560z m3011 2300 c551 -55 1022 -255 1348 -573 331 -322 516 -713 583 -1227
16 -125 16 -485 -1 -630 -80 -715 -391 -1455 -791 -1883 -78 -83 -204 -184
-279 -221 -199 -101 -558 -139 -819 -87 -241 47 -490 153 -704 297 l-112 75
-25 -21 c-261 -212 -451 -292 -691 -292 -131 0 -211 12 -325 49 -271 87 -575
322 -730 563 -94 145 -159 314 -191 495 -22 123 -25 416 -5 555 42 310 130
603 298 995 176 410 431 770 727 1024 114 98 426 335 426 324 0 -5 -38 -103
-84 -218 -161 -403 -211 -641 -209 -1005 1 -385 66 -665 278 -1215 161 -415
247 -600 357 -764 56 -85 157 -211 167 -211 15 0 248 241 324 335 241 300 407
636 491 995 28 119 56 298 56 356 l0 39 -328 -328 -328 -328 -170 173 c-93 95
-193 205 -220 243 -238 329 -322 714 -244 1120 28 144 113 441 150 521 93 206
266 337 514 390 75 16 265 22 287 9 8 -5 -16 -16 -62 -30 -110 -32 -191 -79
-259 -151 -148 -159 -198 -411 -125 -630 74 -221 197 -341 361 -352 135 -9
241 30 492 180 221 132 275 159 337 165 65 7 106 -13 131 -64 16 -32 19 -59
18 -163 -1 -148 -24 -272 -114 -615 -172 -659 -216 -865 -227 -1065 -17 -338
112 -482 372 -414 79 20 137 55 213 127 295 283 439 991 332 1625 -158 925
-728 1510 -1635 1677 -183 33 -319 45 -539 46 l-191 1 95 24 c130 33 296 62
443 78 150 17 469 20 608 6z"/>
</g>
</svg>
