<?xml version="1.0" standalone="no"?>
<!DOCTYPE svg PUBLIC "-//W3C//DTD SVG 20010904//EN"
 "http://www.w3.org/TR/2001/REC-SVG-20010904/DTD/svg10.dtd">
<svg version="1.0" xmlns="http://www.w3.org/2000/svg"
 width="700.000000pt" height="700.000000pt" viewBox="0 0 700.000000 700.000000"
 preserveAspectRatio="xMidYMid meet">
<metadata>
Created by potrace 1.14, written by Peter Selinger 2001-2017
</metadata>
<g transform="translate(0.000000,700.000000) scale(0.100000,-0.100000)"
fill="#000000" stroke="none">
<path d="M0 3500 l0 -3500 3500 0 3500 0 0 3500 0 3500 -3500 0 -3500 0 0
-3500z m4155 3145 c510 -53 979 -205 1370 -442 549 -335 945 -859 1130 -1493
81 -280 115 -518 122 -861 10 -433 -37 -815 -153 -1259 -257 -981 -813 -1880
-1329 -2147 -247 -128 -681 -186 -1025 -138 -140 20 -344 71 -476 120 -210 78
-478 221 -652 347 l-84 60 -36 -31 c-261 -221 -502 -343 -761 -386 -124 -21
-351 -16 -471 10 -341 74 -678 276 -972 584 -513 535 -614 1342 -298 2371 52
169 140 403 237 630 217 507 462 884 803 1234 170 175 258 250 550 471 129 98
241 183 248 188 8 7 6 -7 -7 -39 -10 -27 -60 -151 -109 -275 -166 -416 -224
-632 -274 -1009 -19 -145 -16 -594 5 -755 36 -266 108 -571 201 -842 63 -184
266 -708 343 -888 144 -333 300 -605 452 -787 55 -66 77 -86 88 -79 25 14 262
251 341 341 93 106 248 313 333 445 89 139 246 455 303 610 107 292 161 527
201 885 l6 55 -445 -444 -444 -444 -202 194 c-297 287 -402 420 -525 672 -188
384 -239 789 -155 1238 38 200 153 596 212 728 148 330 511 541 931 541 120 0
191 -12 171 -29 -5 -4 -38 -15 -74 -25 -298 -78 -475 -253 -557 -554 -23 -84
-27 -115 -26 -237 1 -172 20 -252 97 -410 119 -242 265 -349 476 -348 168 1
338 70 670 273 362 221 481 255 570 161 45 -47 59 -93 66 -206 11 -173 -37
-436 -176 -965 -197 -749 -256 -1011 -285 -1260 -38 -332 0 -540 117 -645 70
-62 126 -79 252 -73 276 14 489 191 660 549 319 667 338 1685 46 2465 -346
923 -1043 1489 -2070 1683 -249 47 -369 56 -723 56 -185 0 -337 1 -337 2 0 1
84 22 188 47 507 123 1000 160 1477 111z"/>
</g>
</svg>
